<svg width="24" height="24" viewBox="0 0 24 24" fill="none" xmlns="http://www.w3.org/2000/svg">
<path fill-rule="evenodd" clip-rule="evenodd" d="M15.0581 17.0581C15.3021 16.814 15.6979 16.814 15.9419 17.0581L19.4419 20.5581C19.686 20.8021 19.686 21.1979 19.4419 21.4419C19.1979 21.686 18.8021 21.686 18.5581 21.4419L15.0581 17.9419C14.814 17.6979 14.814 17.3021 15.0581 17.0581Z" fill="#808080"/>
<path fill-rule="evenodd" clip-rule="evenodd" d="M4.375 13C4.375 9.34111 7.34111 6.375 11 6.375C14.6589 6.375 17.625 9.34111 17.625 13C17.625 14.8261 16.8854 16.4807 15.6908 17.6784C14.4921 18.8802 12.8324 19.625 11 19.625C7.34111 19.625 4.375 16.6589 4.375 13ZM11 7.625C8.03147 7.625 5.625 10.0315 5.625 13C5.625 15.9685 8.03147 18.375 11 18.375C12.487 18.375 13.832 17.772 14.8058 16.7956L14.8058 16.7956C15.7762 15.8227 16.375 14.4819 16.375 13C16.375 10.0315 13.9685 7.625 11 7.625Z" fill="#808080"/>
</svg>
