<svg width="16" height="16" viewBox="0 0 16 16" fill="none" xmlns="http://www.w3.org/2000/svg">
<path d="M12 14.666C13.1046 14.666 14 13.7706 14 12.666C14 11.5614 13.1046 10.666 12 10.666C10.8954 10.666 10 11.5614 10 12.666C10 13.7706 10.8954 14.666 12 14.666Z" stroke="black" stroke-width="1.25" stroke-linecap="round" stroke-linejoin="round"/>
<path d="M12 5.33398C13.1046 5.33398 14 4.43855 14 3.33398C14 2.22942 13.1046 1.33398 12 1.33398C10.8954 1.33398 10 2.22942 10 3.33398C10 4.43855 10.8954 5.33398 12 5.33398Z" stroke="black" stroke-width="1.25" stroke-linecap="round" stroke-linejoin="round"/>
<path d="M4 10C5.10457 10 6 9.1046 6 8C6 6.8954 5.10457 6 4 6C2.89543 6 2 6.8954 2 8C2 9.1046 2.89543 10 4 10Z" stroke="black" stroke-width="1.25" stroke-linecap="round" stroke-linejoin="round"/>
<path d="M10.3337 4.33398L5.66699 7.00065" stroke="black" stroke-width="1.25"/>
<path d="M5.66699 9L10.3337 11.6667" stroke="black" stroke-width="1.25"/>
</svg>
